<svg width="24" height="24" viewBox="0 0 24 24" fill="none" xmlns="http://www.w3.org/2000/svg">
    <path d="M12 2C6.48 2 2 6.48 2 12C2 13.96 2.48 15.79 3.32 17.4L2 22L6.6 20.68C8.21 21.52 10.04 22 12 22C17.52 22 22 17.52 22 12C22 6.48 17.52 2 12 2ZM16.5 15.5C16.28 16 15.78 16.37 15.23 16.5C14.95 16.57 14.59 16.63 13.37 16.12C11.62 15.37 9.88 13.62 9.13 11.87C8.63 10.66 8.68 10.29 8.75 10.02C8.88 9.47 9.25 8.97 9.75 8.75C9.95 8.66 10.17 8.62 10.39 8.62C10.47 8.62 10.55 8.63 10.62 8.63C10.87 8.63 11 8.69 11.19 9.07C11.42 9.5 11.86 10.5 11.93 10.66C12 10.81 12.04 10.98 11.95 11.17C11.87 11.37 11.82 11.45 11.67 11.62C11.52 11.79 11.37 12 11.24 12.13C11.1 12.27 10.95 12.42 11.12 12.71C11.29 13 11.73 13.74 12.4 14.34C13.27 15.12 14 15.44 14.29 15.58C14.51 15.69 14.76 15.67 14.94 15.5C15.17 15.27 15.45 14.87 15.73 14.47C15.93 14.19 16.18 14.15 16.45 14.26C16.72 14.36 17.73 14.86 18.02 15C18.31 15.15 18.49 15.22 18.56 15.34C18.62 15.47 18.62 15.92 18.4 16.46L16.5 15.5Z" fill="white"/>
</svg> 